<svg width="30" height="30" viewBox="0 0 30 30" fill="none" xmlns="http://www.w3.org/2000/svg">
    <path d="M30 14.985C30 6.713 23.28 0 15 0 6.72 0 0 6.713 0 14.985c0 4.556 2.07 8.663 5.31 11.419.03.03.06.03.06.06.27.21.54.42.84.63.15.09.27.208.42.328A14.962 14.962 0 0 0 15.03 30c2.995 0 5.921-.897 8.4-2.578.15-.09.27-.208.42-.3.27-.208.57-.418.84-.628.03-.03.06-.03.06-.06C27.93 23.646 30 19.54 30 14.985zM15 28.112c-2.82 0-5.4-.9-7.53-2.398.03-.24.09-.478.15-.718.179-.65.44-1.275.78-1.858.33-.57.72-1.08 1.2-1.53.45-.45.99-.869 1.53-1.199.57-.33 1.17-.57 1.83-.75a7.777 7.777 0 0 1 2.04-.268 7.847 7.847 0 0 1 5.49 2.187c.69.69 1.23 1.5 1.62 2.428.21.54.36 1.11.45 1.708A13.181 13.181 0 0 1 15 28.112zm-4.59-13.875a4.669 4.669 0 0 1-.39-1.92c0-.658.12-1.318.39-1.918.27-.6.63-1.138 1.08-1.588.45-.45.99-.809 1.59-1.079.6-.27 1.26-.39 1.92-.39.69 0 1.32.12 1.92.39.6.27 1.14.63 1.59 1.079.45.45.81.99 1.08 1.588.27.6.39 1.26.39 1.918 0 .69-.12 1.32-.39 1.918a5.325 5.325 0 0 1-1.08 1.59c-.46.453-.999.818-1.59 1.078a5.09 5.09 0 0 1-3.87 0 5.325 5.325 0 0 1-1.59-1.078 4.736 4.736 0 0 1-1.05-1.59v.002zm13.92 9.949c0-.06-.03-.09-.03-.15a9.787 9.787 0 0 0-1.29-2.637 9.158 9.158 0 0 0-2.04-2.128 9.763 9.763 0 0 0-1.95-1.14c.315-.207.606-.448.87-.718.447-.441.84-.935 1.17-1.47a6.795 6.795 0 0 0 .99-3.626 6.957 6.957 0 0 0-.54-2.756 7.124 7.124 0 0 0-1.53-2.248 7.21 7.21 0 0 0-2.25-1.5 6.975 6.975 0 0 0-2.76-.539 6.975 6.975 0 0 0-2.76.54 6.809 6.809 0 0 0-2.25 1.529 7.2 7.2 0 0 0-1.5 2.248 6.956 6.956 0 0 0-.54 2.756c0 .66.09 1.29.27 1.888.18.63.42 1.2.75 1.738.3.54.72 1.02 1.17 1.47.27.27.57.508.9.718a9.6 9.6 0 0 0-1.95 1.17c-.78.6-1.47 1.318-2.04 2.098a9.373 9.373 0 0 0-1.29 2.637c-.03.06-.03.12-.03.15-2.37-2.399-3.84-5.635-3.84-9.231C1.86 7.763 7.77 1.858 15 1.858s13.14 5.905 13.14 13.127a13.05 13.05 0 0 1-3.81 9.2z" fill="#000" opacity=".5"/>
</svg>
