<svg width="26" height="26" viewBox="0 0 26 26" fill="none" xmlns="http://www.w3.org/2000/svg">
    <path d="M13 0C5.815 0 0 5.814 0 13c0 7.185 5.814 13 13 13 7.185 0 13-5.814 13-13 0-7.185-5.814-13-13-13zm0 24.286C6.777 24.286 1.714 19.223 1.714 13S6.777 1.714 13 1.714 24.286 6.777 24.286 13 19.223 24.286 13 24.286z" fill="#E77E64"/>
    <path d="M18.364 7.636a2.57 2.57 0 0 0-3.637 0L13 9.363l-1.727-1.727a2.57 2.57 0 0 0-3.637 0 2.575 2.575 0 0 0 0 3.637L9.363 13l-1.727 1.727a2.574 2.574 0 0 0 0 3.637 2.57 2.57 0 0 0 3.637 0L13 16.637l1.727 1.727a2.57 2.57 0 0 0 3.637 0 2.574 2.574 0 0 0 0-3.637L16.637 13l1.727-1.727a2.574 2.574 0 0 0 0-3.637zm-1.213 2.425-2.333 2.333a.857.857 0 0 0 0 1.212l2.333 2.333a.858.858 0 0 1-1.212 1.212l-2.333-2.333a.854.854 0 0 0-1.212 0l-2.333 2.333a.857.857 0 1 1-1.212-1.212l2.333-2.333a.857.857 0 0 0 0-1.212L8.849 10.06a.858.858 0 0 1 1.212-1.213l2.333 2.334a.857.857 0 0 0 1.212 0l2.333-2.334a.857.857 0 1 1 1.212 1.213z" fill="#E77E64"/>
</svg>
