<svg width="30" height="30" viewBox="0 0 30 30" fill="none" xmlns="http://www.w3.org/2000/svg">
    <path d="M29.362 4.787H.625A.638.638 0 0 0 0 5.427v19.148c0 .353.286.639.638.639h28.724a.638.638 0 0 0 .638-.639V5.427a.638.638 0 0 0-.638-.639zM27.82 6.064l-8.485 8.484L15 18.886l-4.336-4.336v-.001L2.178 6.064h25.642zm-26.544.902L9.31 15l-8.033 8.034V6.966zm.902 16.97 8.034-8.034 4.336 4.336c.222.223.57.334.902 0l4.336-4.335 8.034 8.033H2.179zm26.544-.902L20.69 15l8.033-8.034v16.067z" fill="#000" opacity=".5"/>
</svg>
