<svg width="122" height="46" viewBox="0 0 122 46" fill="none" xmlns="http://www.w3.org/2000/svg">
    <g clip-path="url(#a)" fill="#fff">
        <path d="M33.972 30.743c-1.31 0-2.467-.274-3.497-.822a6.25 6.25 0 0 1-2.421-2.264c-.587-.96-.885-2.046-.885-3.25 0-1.206.289-2.284.867-3.224.578-.94 1.382-1.69 2.403-2.237 1.021-.548 2.187-.822 3.497-.822 1.3 0 2.466.274 3.478.822 1.012.548 1.816 1.287 2.404 2.237.587.94.885 2.018.885 3.223s-.29 2.292-.867 3.25a6.18 6.18 0 0 1-2.395 2.265c-1.012.548-2.168.822-3.47.822zm-.027-4.2c.406 0 .75-.082 1.048-.256.298-.173.524-.41.686-.73.163-.32.244-.685.244-1.114 0-.42-.08-.795-.253-1.114a1.78 1.78 0 0 0-.686-.73c-.29-.174-.633-.256-1.04-.256-.388 0-.731.09-1.03.264a1.93 1.93 0 0 0-.704.75c-.172.319-.253.684-.253 1.113 0 .41.081.767.253 1.087.172.32.407.566.705.73.298.164.641.256 1.03.256z"/>
        <path d="M43.016 2.73h-2.783a1.4 1.4 0 0 0-1.391 1.406v38.367h5.574V4.145c-.009-.785-.632-1.415-1.4-1.415zM69.226 2.73h-3.352c-.614 0-1.111.502-1.111 1.123v38.65h5.575V3.853c0-.62-.497-1.123-1.112-1.123z"/>
        <path d="M75.713 2.648c-.496-.155-1.084-.228-1.77-.228-.868 0-1.645.118-2.35.347-.84.273-1.409 1.077-1.409 1.98V9.24c0-.639.154-1.123.452-1.452.307-.337.759-.502 1.364-.502.362 0 .687.055.958.155h.009c.407.146.858.037 1.12-.32l2.196-2.958c.38-.51.162-1.26-.434-1.47-.045-.018-.09-.027-.136-.045zM61.411 28.634v2.538c0 .648.524 1.178 1.166 1.178h11.122v-4.894H62.577c-.65 0-1.166.53-1.166 1.178zm3.171-1.178v4.894h5.936v-4.894h-5.936z"/>
        <path d="M77.954 27.456H73.6v13.632c0 .785.624 1.415 1.4 1.415h3.127c.777 0 1.4-.63 1.4-1.415V29.044c0-.876-.704-1.588-1.572-1.588z"/>
        <path d="M87.007 42.877c-1.635 0-3.09-.338-4.373-1.022-1.283-.685-2.294-1.626-3.026-2.83-.741-1.206-1.103-2.557-1.103-4.073 0-1.507.362-2.858 1.094-4.036.722-1.187 1.725-2.118 3.008-2.803s2.738-1.023 4.373-1.023c1.636 0 3.09.338 4.355 1.023 1.274.685 2.277 1.616 3.009 2.803.74 1.187 1.102 2.53 1.102 4.036 0 1.507-.361 2.867-1.093 4.072-.723 1.205-1.726 2.146-3 2.83-1.265.676-2.72 1.023-4.346 1.023zm-.036-5.268c.506 0 .94-.11 1.32-.32.37-.21.659-.52.858-.922.198-.402.307-.858.307-1.388 0-.53-.109-.995-.316-1.387a2.196 2.196 0 0 0-.859-.914c-.361-.21-.795-.32-1.3-.32-.489 0-.913.11-1.284.339-.37.228-.668.538-.876.931a2.962 2.962 0 0 0-.316 1.388c0 .511.108.968.316 1.36.208.402.506.703.876.922.362.21.795.31 1.274.31z"/>
        <path d="M94.443 41.152V29.419c0-.913.732-1.662 1.645-1.662h2.647c.903 0 1.644.74 1.644 1.662v11.733c0 .913-.732 1.661-1.644 1.661h-2.647c-.913 0-1.645-.74-1.645-1.661zm11.113 1.661c-.903 0-1.644-.74-1.644-1.661v-6.784c0-.594-.163-1.041-.497-1.36-.334-.32-.75-.476-1.256-.476-.343 0-.65.074-.922.21a1.513 1.513 0 0 0-.632.63c-.154.274-.226.603-.226.996l-1.229-.557a1.669 1.669 0 0 1-.94-1.854 5.284 5.284 0 0 1 2.891-3.798c.941-.466 2.007-.703 3.19-.703 1.066 0 2.024.237 2.864.721a5.304 5.304 0 0 1 1.979 1.954c.488.822.723 1.78.723 2.858v8.163c0 .913-.732 1.661-1.645 1.661h-2.656z"/>
        <path d="M115.522 43.352a10.74 10.74 0 0 1-2.783-.365 11.754 11.754 0 0 1-2.584-1.014c-.117-.064-.235-.127-.343-.191a1.69 1.69 0 0 1-.362-2.63l.786-.822a1.644 1.644 0 0 1 2.033-.274 5.495 5.495 0 0 0 2.855.794c.344 0 .615-.045.805-.136.189-.092.289-.22.289-.384 0-.283-.163-.502-.497-.639-.335-.146-.759-.274-1.274-.402a18.492 18.492 0 0 1-1.636-.474 7.263 7.263 0 0 1-1.653-.795 3.748 3.748 0 0 1-1.274-1.406c-.325-.602-.488-1.37-.488-2.31 0-.959.271-1.808.804-2.557.533-.748 1.292-1.333 2.268-1.77.976-.44 2.114-.658 3.406-.658 1.31 0 2.584.228 3.813.675.506.183.976.411 1.401.676.912.566 1.057 1.844.307 2.611l-.804.822c-.542.566-1.41.73-2.078.329a3.05 3.05 0 0 0-.705-.32c-.606-.191-1.111-.292-1.518-.292-.38 0-.651.055-.804.165a.484.484 0 0 0-.226.41c0 .229.163.411.488.548.325.146.741.274 1.256.402a12.84 12.84 0 0 1 1.617.493c.569.2 1.102.493 1.617.858.515.366.931.85 1.256 1.452.325.603.488 1.379.488 2.337 0 1.489-.587 2.676-1.753 3.552-1.156.877-2.728 1.315-4.707 1.315zM44.407 26.205v9.13a8.295 8.295 0 0 1-.117-1.433v-6.273c0-.484.036-.959.117-1.424zM64.763 32.167v10.345H44.407V32.167a10.268 10.268 0 0 0 2.973 7.003 10.101 10.101 0 0 0 7.2 3.013h.01c5.538 0 10.037-4.465 10.173-10.016zM66.886 46H42.284c-1.907 0-3.451-1.561-3.451-3.488h31.505c0 1.927-1.545 3.488-3.452 3.488zM14.98 42.311c-3.45 0-6.46-.511-9.016-1.525-1.77-.703-3.442-1.689-5.024-2.976-1.156-.94-1.255-2.694-.207-3.753l3.632-3.68c.867-.876 2.259-1.004 3.234-.246a16.039 16.039 0 0 0 3.054 1.863c1.626.748 3.38 1.123 5.231 1.123 1.554 0 2.729-.238 3.524-.722.795-.474 1.193-1.14 1.193-1.98 0-.841-.344-1.544-1.021-2.101-.687-.557-1.581-1.05-2.702-1.497a85.18 85.18 0 0 0-3.695-1.352 32.763 32.763 0 0 1-4.012-1.67 17.876 17.876 0 0 1-3.668-2.384c-1.12-.94-2.024-2.109-2.701-3.506-.687-1.397-1.021-3.113-1.021-5.15 0-2.647.623-4.92 1.879-6.838 1.256-1.918 3.018-3.379 5.295-4.401C11.222.51 13.897 0 16.969 0c3.035 0 5.845.493 8.447 1.47a18.22 18.22 0 0 1 4.202 2.21c1.283.913 1.463 2.757.352 3.871l-3.632 3.643a2.47 2.47 0 0 1-3.262.21 12.06 12.06 0 0 0-2.114-1.306c-1.256-.593-2.62-.894-4.093-.894-1.174 0-2.114.191-2.819.575-.704.383-1.048.959-1.048 1.726 0 .803.344 1.47 1.021 1.98.687.521 1.581.987 2.702 1.407 1.12.42 2.349.858 3.695 1.324a37.377 37.377 0 0 1 4.012 1.634 15.973 15.973 0 0 1 3.668 2.41c1.12.978 2.024 2.192 2.701 3.653.687 1.461 1.021 3.223 1.021 5.287 0 4.182-1.473 7.405-4.409 9.687-2.945 2.283-7.083 3.424-12.432 3.424zM75.515 17.275h3.822c.207 0 .316.237.198.402l-2.566 3.378a.25.25 0 0 0 .2.402h.93c.198 0 .316.228.198.392l-2.195 3.087c-.136.191-.443.09-.443-.146v-1.507a.244.244 0 0 0-.244-.247H73.78a.247.247 0 0 1-.235-.328l1.735-5.269a.268.268 0 0 1 .235-.164zM47.325 15.878c0-1.287.317-2.447.958-3.47a6.791 6.791 0 0 1 2.602-2.41c1.093-.584 2.34-.877 3.705-.877 1.391 0 2.638.293 3.74.877 1.102.584 1.97 1.388 2.602 2.41.633 1.023.958 2.192.958 3.498 0 .995-.199 1.89-.605 2.693a5.11 5.11 0 0 1-1.681 1.936c-.714.484-1.536.748-2.457.794h-5.07a4.743 4.743 0 0 1-2.448-.776 4.887 4.887 0 0 1-1.698-1.936c-.407-.812-.606-1.725-.606-2.739zm3.497.73c0 1.069.361 1.945 1.075 2.603.714.666 1.608.995 2.693.995.731 0 1.391-.155 1.97-.466.578-.31 1.03-.73 1.345-1.26.317-.53.48-1.15.48-1.871 0-.704-.163-1.324-.489-1.863a3.408 3.408 0 0 0-1.328-1.26c-.56-.301-1.21-.457-1.942-.457-.75 0-1.41.156-1.97.457a3.43 3.43 0 0 0-1.328 1.269 3.521 3.521 0 0 0-.506 1.854zm-3.207 3.36h3.767l3.415.64 3.389-.64H61.6v3.863H47.615v-3.862z"/>
        <path d="m52.322 9.414 2.042-1.936a.358.358 0 0 1 .488 0l2.033 1.936h-4.563z"/>
        <path d="m56.704 9.359 2.746-.502c.19-.037.37.082.416.274l.669 2.739-3.831-2.511zM49.024 11.715l.678-2.74a.358.358 0 0 1 .415-.264l2.747.51-3.84 2.494z"/>
        <path d="m47.38 15.349-.804-2.712a.375.375 0 0 1 .216-.448l2.62-.977-2.032 4.137zM60.345 11.806l2.476 1.324a.363.363 0 0 1 .162.465l-1.147 2.575-1.491-4.364z"/>
        <path d="m48.744 19.622-2.43-1.397a.367.367 0 0 1-.145-.475l1.22-2.539 1.355 4.41zM61.971 15.668l1.048 2.62a.368.368 0 0 1-.18.466l-2.521 1.215 1.653-4.3zM57.454 25.52h-5.701a.733.733 0 0 1-.732-.74c0-.41.325-.739.732-.739h5.7c.407 0 .732.329.732.74 0 .41-.325.74-.731.74zM57.454 27.2h-5.701a.733.733 0 0 1-.732-.74c0-.41.325-.74.732-.74h5.7c.407 0 .732.33.732.74 0 .411-.325.74-.731.74zM56.18 28.89h-3.145a.733.733 0 0 1-.731-.74c0-.411.325-.74.731-.74h3.145c.406 0 .732.329.732.74a.744.744 0 0 1-.732.74zM54.644 18.243h-.081a.1.1 0 0 0-.1.1v2.447a.1.1 0 0 0 .1.1h.08a.1.1 0 0 0 .1-.1v-2.447a.1.1 0 0 0-.1-.1z"/>
        <path d="m56.93 19.074-.831-2c0-.009 0-.018-.01-.018h-2.963c-.009 0-.009.009-.009.018l-.831 2c0 .009.009.018.018.018h4.617s.009-.01.009-.018zM54.427 14.189h1.057c.054 0 .09.064.054.11l-.704.93c-.037.046 0 .11.054.11h.262c.054 0 .09.064.054.11l-.605.85c-.036.054-.127.027-.127-.037v-.411a.072.072 0 0 0-.072-.073h-.452c-.045 0-.081-.046-.063-.092l.479-1.451a.068.068 0 0 1 .063-.046z"/>
    </g>
    <defs>
        <clipPath id="a">
            <path fill="#fff" d="M0 0h122v46H0z"/>
        </clipPath>
    </defs>
</svg>
