<svg width="152" height="163" viewBox="0 0 152 163" fill="none" xmlns="http://www.w3.org/2000/svg">
    <path opacity=".8" d="M72.024 34.377H86.6c.773 0 1.22.889.742 1.486l-9.775 12.654c-.48.613-.031 1.486.74 1.486h3.568c.757 0 1.204.858.757 1.47l-8.37 11.536c-.525.736-1.699.353-1.699-.536v-5.607a.942.942 0 0 0-.942-.934H65.4c-.633 0-1.097-.628-.88-1.226l6.624-19.716a.919.919 0 0 1 .88-.613z" fill="#232323"/>
    <path opacity=".8" d="M117.749 46.786c0 22.872-18.701 41.424-41.757 41.424-23.055 0-41.756-18.537-41.756-41.424 0-22.888 18.7-41.424 41.756-41.424s41.757 18.552 41.757 41.424zm-41.757 41.44c-38.776 0-70.232 31.021-70.54 69.412h141.097c-.309-38.391-31.781-69.413-70.557-69.413z" stroke="#232323" stroke-width="7" stroke-miterlimit="10"/>
</svg>
