<svg width="30" height="30" viewBox="0 0 30 30" fill="none" xmlns="http://www.w3.org/2000/svg">
<path opacity="0.5" fill-rule="evenodd" clip-rule="evenodd" d="M22.2127 0.197159C23.9433 0.549231 25.545 1.36547 26.8456 2.55811C28.1463 3.75076 29.0967 5.27472 29.5948 6.96615C30.0561 8.51702 30.1248 10.1579 29.7943 11.743C29.3166 13.9147 28.1145 15.8603 26.3848 17.2612C24.6551 18.6621 22.5001 19.4354 20.2728 19.4545C19.3328 19.4545 18.3972 19.3196 17.4981 19.0475L15.7813 21.0568L14.968 21.4317H12.8757V24.6448L11.8027 25.7158H8.58379V28.929L7.51081 30H1.07297L0 28.929V23.9872L0.313308 23.231L10.9872 12.5763C10.6843 11.6023 10.5394 10.5863 10.5581 9.56664C10.5776 8.14009 10.9122 6.73541 11.538 5.45273C12.1637 4.17006 13.0653 3.04097 14.1783 2.14597C15.2913 1.25096 16.5885 0.612073 17.9772 0.274848C19.366 -0.0623769 20.8122 -0.0896348 22.2127 0.195017V0.197159ZM25.0411 15.6202C26.3891 14.5305 27.3266 13.0162 27.6999 11.3253L27.7085 11.336C27.9743 10.0996 27.9265 8.81647 27.5693 7.60321C27.2121 6.38995 26.5568 5.28502 25.663 4.38882C24.7693 3.49261 23.6653 2.83354 22.4515 2.47149C21.2377 2.10943 19.9525 2.05588 18.7127 2.31568C17.0405 2.68615 15.5406 3.6044 14.4517 4.92422C13.3628 6.24404 12.7476 7.88956 12.704 9.59877C12.6825 10.5756 12.8542 11.5438 13.2169 12.4477L12.9808 13.6109L2.14595 24.4306V27.8579H6.43784V24.6448L7.51081 23.5737H10.7297V20.3606L11.8027 19.2896H14.4744L16.3543 17.1132L17.5581 16.8133C18.4259 17.1518 19.3496 17.3248 20.2813 17.3231C22.0153 17.3099 23.6934 16.7095 25.0411 15.6202ZM23.2428 9.768C23.4119 9.53462 23.5322 9.26957 23.5965 8.9887C23.6607 8.70784 23.6674 8.41693 23.6164 8.13339C23.5654 7.84984 23.4576 7.57949 23.2995 7.3385C23.1413 7.0975 22.9361 6.89082 22.6961 6.73082C22.4561 6.57082 22.1863 6.46079 21.9027 6.40731C21.6191 6.35383 21.3276 6.35799 21.0457 6.41956C20.7637 6.48112 20.4971 6.59882 20.2618 6.76562C20.0265 6.93241 19.8273 7.14487 19.6762 7.39028C19.3854 7.86237 19.2893 8.42857 19.4079 8.96994C19.5266 9.51131 19.8508 9.98571 20.3124 10.2935C20.7741 10.6013 21.3373 10.7185 21.8837 10.6205C22.4302 10.5225 22.9173 10.2169 23.2428 9.768Z" fill="black"/>
</svg>
