<svg width="30" height="30" viewBox="0 0 30 30" fill="none" xmlns="http://www.w3.org/2000/svg">
    <g opacity=".5" clip-path="url(#a)">
        <path d="M22.037 18.944c-.638-.364-1.299-.48-1.86-.323a1.665 1.665 0 0 0-.998.773c-.51.61-1.143 1.323-1.296 1.433-1.184.802-2.125.708-3.147-.314L8.993 14.77c-1.023-1.022-1.117-1.963-.316-3.145.112-.155.825-.787 1.435-1.298.39-.232.656-.576.773-.998.156-.561.041-1.222-.326-1.865-.086-.148-2.145-3.635-4.042-4.639a2.454 2.454 0 0 0-2.898.436L2.35 4.53C.344 6.536-.383 8.811.19 11.29c.478 2.066 1.871 4.264 4.141 6.534l7.352 7.353c2.881 2.88 5.63 4.328 8.15 4.328 1.85 0 3.577-.781 5.144-2.348l1.269-1.268c.77-.77.946-1.935.436-2.898-1.004-1.898-4.49-3.956-4.644-4.046zm3.5 6.237-1.268 1.268c-3.284 3.284-7.28 2.618-11.88-1.98l-7.352-7.353c-2.135-2.136-3.438-4.172-3.873-6.052-.498-2.15.122-4.056 1.893-5.827l1.268-1.269a1.463 1.463 0 0 1 1.723-.259c1.646.872 3.628 4.227 3.645 4.256.224.393.31.804.228 1.098a.673.673 0 0 1-.342.418l-.075.052c-.426.356-1.441 1.217-1.654 1.53a4.135 4.135 0 0 0-.615 1.333 7.08 7.08 0 0 1-.738-2.44.506.506 0 0 0-.548-.447.5.5 0 0 0-.446.55c.36 3.476 3.064 5.739 3.179 5.834.012.01.027.013.04.022l5.306 5.306.069.065c.017.025.029.054.052.077.094.093 2.352 2.283 5.799 2.641a.5.5 0 0 0 .103-.995 8.809 8.809 0 0 1-2.774-.779 4.307 4.307 0 0 0 1.166-.573c.314-.213 1.175-1.227 1.53-1.654l.053-.075a.676.676 0 0 1 .418-.342c.294-.08.704.004 1.093.225.033.02 3.388 2.001 4.26 3.648a1.458 1.458 0 0 1-.26 1.722z" fill="#000"/>
    </g>
    <defs>
        <clipPath id="a">
            <path fill="#fff" d="M0 0h30v30H0z"/>
        </clipPath>
    </defs>
</svg>
