<svg width="15" height="15" viewBox="0 0 15 15" fill="none" xmlns="http://www.w3.org/2000/svg">
    <g clip-path="url(#a)">
        <path d="m.995 4.573 6.364 6.818c.119.128.28.2.45.2.168 0 .33-.072.45-.2l6.363-6.818a.717.717 0 0 0 0-.964.607.607 0 0 0-.9 0L7.809 9.945 1.895 3.609a.614.614 0 0 0-.45-.2.613.613 0 0 0-.45.2.717.717 0 0 0 0 .964z" fill="#000" fill-opacity=".5"/>
    </g>
    <defs>
        <clipPath id="a">
            <path fill="#fff" transform="rotate(-180 7.404 7.5)" d="M0 0h14v15H0z"/>
        </clipPath>
    </defs>
</svg>
