<svg width="30" height="30" viewBox="0 0 30 30" fill="none" xmlns="http://www.w3.org/2000/svg">
    <path opacity=".5" fill-rule="evenodd" clip-rule="evenodd" d="M22.213.197a9.723 9.723 0 0 1 4.633 2.361 9.698 9.698 0 0 1 2.749 4.408c.461 1.551.53 3.192.2 4.777a9.815 9.815 0 0 1-3.41 5.518 9.846 9.846 0 0 1-6.112 2.194 9.58 9.58 0 0 1-2.775-.407l-1.717 2.009-.813.375h-2.092v3.213l-1.073 1.07h-3.22v3.214L7.512 30H1.073L0 28.929v-4.942l.313-.756 10.674-10.655a9.545 9.545 0 0 1-.429-3.01 9.684 9.684 0 0 1 3.62-7.42A9.724 9.724 0 0 1 22.213.195v.002zM25.04 15.62a7.642 7.642 0 0 0 2.659-4.295l.009.011a7.577 7.577 0 0 0-2.046-6.947 7.605 7.605 0 0 0-6.95-2.073 7.676 7.676 0 0 0-4.261 2.608A7.652 7.652 0 0 0 12.704 9.6c-.022.977.15 1.945.513 2.849l-.236 1.163L2.146 24.43v3.427h4.292v-3.213l1.073-1.071h3.219V20.36l1.073-1.071h2.671l1.88-2.177 1.204-.3a7.456 7.456 0 0 0 2.723.51 7.665 7.665 0 0 0 4.76-1.703zm-1.798-5.852a2.143 2.143 0 0 0 .056-2.43 2.145 2.145 0 0 0-3.037-.572 2.143 2.143 0 0 0-.854 2.204 2.143 2.143 0 0 0 2.476 1.65 2.147 2.147 0 0 0 1.359-.852z" fill="#000"/>
</svg>
