<svg width="152" height="163" viewBox="0 0 152 163" fill="none" xmlns="http://www.w3.org/2000/svg">
<path opacity="0.8" d="M72.0237 34.3771H86.6014C87.3735 34.3771 87.8214 35.2656 87.3426 35.8631L77.5676 48.517C77.0889 49.1298 77.5367 50.003 78.3088 50.003H81.876C82.6327 50.003 83.0805 50.8609 82.6327 51.4737L74.2629 63.0093C73.7378 63.7447 72.5642 63.3617 72.5642 62.4731V56.8662C72.5642 56.3606 72.1473 55.9317 71.6222 55.9317H65.3989C64.7658 55.9317 64.3025 55.3036 64.5187 54.7061L71.1435 34.9899C71.267 34.6222 71.6222 34.3771 72.0237 34.3771Z" fill="#232323"/>
<path opacity="0.8" d="M117.749 46.7859C117.749 69.658 99.0478 88.2099 75.9923 88.2099C52.9367 88.2099 34.2359 69.6733 34.2359 46.7859C34.2359 23.8985 52.9367 5.36182 75.9923 5.36182C99.0478 5.36182 117.749 23.9138 117.749 46.7859ZM75.9923 88.2252C37.2163 88.2252 5.76002 119.247 5.45117 157.638H146.549C146.24 119.247 114.768 88.2252 75.9923 88.2252Z" stroke="#232323" stroke-width="7" stroke-miterlimit="10"/>
</svg>
